<svg width="12" height="12" viewBox="0 0 12 12" fill="none" xmlns="http://www.w3.org/2000/svg">
<path d="M6.71737 5.47638C6.69883 5.49899 6.6793 5.52239 6.65889 5.54671C6.51023 4.72363 6.37245 3.90082 6.23447 3.07676C6.18499 2.78109 6.13524 2.48417 6.08522 2.18811L6.07958 2.15509L6.06132 2.12655C6.02687 2.07283 6.02345 2.02017 6.02345 1.90786V1.89488L6.02136 1.88203C5.98403 1.65009 5.87473 1.43424 5.70774 1.26275C5.54123 1.09171 5.32496 0.972681 5.08707 0.921008C4.84959 0.864788 4.60002 0.877178 4.36978 0.956665C4.14016 1.03595 3.94 1.17845 3.7943 1.36629C3.67318 1.51043 3.57387 1.67033 3.49948 1.84116C3.33061 2.2092 3.16027 2.57816 2.98946 2.94811L2.98651 2.9545C2.56008 3.87808 2.13077 4.80786 1.71395 5.74496L1.71267 5.74799C1.45679 6.35561 1.24556 6.99585 1.03507 7.63411C0.993037 7.76151 0.951004 7.88885 0.908637 8.01586C0.832632 8.21728 0.799397 8.43122 0.810811 8.64509C0.79698 8.83656 0.844718 9.02756 0.947715 9.19227C1.05273 9.36034 1.21004 9.49255 1.39744 9.57039C1.59605 9.65396 1.81809 9.67169 2.02845 9.62081C2.23834 9.56999 2.42472 9.45373 2.55827 9.29028C2.72881 9.08892 2.87552 8.86932 2.99517 8.63666C3.34827 7.94343 3.68573 7.24175 4.02165 6.54312C4.15164 6.27289 4.27793 6.03087 4.42162 5.7673C4.43149 5.7998 4.44156 5.8315 4.45197 5.86327C4.60257 6.49962 4.85677 7.10915 5.20518 7.6695C5.27111 7.78821 5.36296 7.89195 5.47442 7.97361C5.58722 8.05626 5.71741 8.11426 5.85593 8.14372C5.99444 8.17318 6.13799 8.17331 6.27657 8.14412C6.41496 8.11498 6.54555 8.05692 6.65841 7.97466L6.8818 7.81418L8.61563 6.41249L8.5131 7.03961C8.37237 7.90164 8.23271 8.75648 8.08433 9.61152C7.98724 9.99049 7.98737 10.3863 8.08473 10.7652C8.1269 10.9784 8.23433 11.1747 8.39332 11.329C8.55366 11.4847 8.75898 11.5904 8.9827 11.6326C9.20642 11.6747 9.4382 11.6513 9.64788 11.5655C9.85455 11.4809 10.0303 11.3395 10.1532 11.1592C10.4391 10.8188 10.617 10.4066 10.6659 9.97184C10.7395 9.35783 10.8226 8.73545 10.9058 8.11327C11.0016 7.39611 11.0974 6.67915 11.1783 5.97597L11.1786 5.9738C11.2565 5.20404 11.2942 4.43113 11.2915 3.65775C11.3086 3.41336 11.2452 3.16989 11.1101 2.96182C10.9746 2.75302 10.7738 2.59068 10.5365 2.49782C10.2897 2.39012 10.0134 2.36132 9.74826 2.41576C9.48486 2.4698 9.24644 2.60307 9.06757 2.79612C8.74777 3.07999 8.44777 3.38377 8.16947 3.70547L8.16758 3.70764C7.86376 4.071 7.56202 4.44148 7.26223 4.80958C7.07994 5.03334 6.89818 5.25657 6.71737 5.47638Z" fill="#3A3B7B"/>
</svg>
